<svg width="32" height="32" xmlns="http://www.w3.org/2000/svg">

 <g>
  <title>background</title>
  <rect fill="none" id="canvas_background" height="602" width="802" y="-1" x="-1"/>
 </g>
 <g>
  <title>Layer 1</title>
  <path id="svg_1" opacity="0.2" d="m2,11.375l0,15.7793c0,1.05451 0.80628,1.9082 1.80078,1.9082l4.19922,0l0,-11.96094l-4.72266,-3.51953c-0.84652,-0.62471 -1.22215,-1.41367 -1.26757,-2.19922l-0.00977,-0.00781zm28,0l-0.0098,0.00781c-0.04542,0.78554 -0.42105,1.57451 -1.26758,2.19922l-4.72262,3.51953l0,11.96094l4.19922,0c0.9945,0 1.80078,-0.85369 1.80078,-1.9082l0,-15.7793z"/>
  <path id="svg_2" fill="#34a853" d="m30,10.375l-0.00977,0.00781c-0.04542,0.78555 -0.42105,1.57451 -1.26757,2.19922l-4.72266,3.51953l0,11.96094l4.19922,0c0.9945,0 1.80078,-0.85369 1.80078,-1.9082l0,-15.7793z"/>
  <path id="svg_3" fill="#4285f4" d="m2,10.375l0.0098,0.00781c0.04542,0.78554 0.42105,1.57451 1.26758,2.19922l4.72262,3.51953l0,11.96094l-4.19922,0c-0.9945,0 -1.80078,-0.85369 -1.80078,-1.9082l0,-15.7793z"/>
  <path id="svg_4" opacity="0.2" d="m5.13086,8.06445c-2.54094,-0.1088 -4.5385,3.53615 -1.85352,5.51758l4.72266,3.51953l8,5.96094l8,-5.96094l4.72266,-3.51953c2.68498,-1.98143 0.68765,-5.62634 -1.85352,-5.51758c-0.58642,0.0251 -1.20137,0.25082 -1.79492,0.74219l-1.07422,0.78516l-8,5.84179l-8,-5.84179l-1.07422,-0.78516c-0.59355,-0.49137 -1.20855,-0.71708 -1.79492,-0.74219z"/>
  <path id="svg_5" fill="#ea4335" d="m8,8.5918l0,7.50976l8,5.96094l8,-5.96094l0,-7.50976l-8,5.84179l-8,-5.84179z"/>
  <path id="svg_6" fill="#c5221f" d="m5.13086,7.06445c-2.54094,-0.1088 -4.5385,3.53615 -1.85352,5.51758l4.72266,3.51953l0,-7.50976l-1.07422,-0.78516c-0.59355,-0.49137 -1.20855,-0.71708 -1.79492,-0.74219z"/>
  <path id="svg_7" fill="#fbbc04" d="m26.86914,7.06445c-0.58642,0.0251 -1.20137,0.25082 -1.79492,0.74219l-1.07422,0.78516l0,7.50976l4.72266,-3.51953c2.68498,-1.98143 0.68765,-5.62634 -1.85352,-5.51758z"/>
  <path id="svg_8" opacity="0.2" fill="#ffffff" d="m5.13086,7.06445c-1.85385,-0.07938 -3.41027,1.83933 -3.07813,3.65235c0.25576,-1.45147 1.5667,-2.71707 3.07813,-2.65235c0.58637,0.02511 1.20137,0.25082 1.79492,0.74219l1.07422,0.78516l8,5.84179l8,-5.84179l1.07422,-0.78516c0.59355,-0.49137 1.2085,-0.71709 1.79492,-0.74219c1.51157,-0.06469 2.82241,1.20089 3.07813,2.65235c0.3322,-1.81301 -1.22411,-3.7317 -3.07813,-3.65235c-0.58642,0.0251 -1.20137,0.25082 -1.79492,0.74219l-1.07422,0.78516l-8,5.84179l-8,-5.84179l-1.07422,-0.78516c-0.59355,-0.49137 -1.20855,-0.71708 -1.79492,-0.74219z"/>
 </g>
</svg>