<svg width="32" height="32" xmlns="http://www.w3.org/2000/svg">

 <g>
  <title>background</title>
  <rect fill="none" id="canvas_background" height="34" width="34" y="-1" x="-1"/>
 </g>
 <g>
  <title>Layer 1</title>
  <g stroke="null" id="_x34__stroke">
   <g stroke="null" id="LinkedIn">
    <rect stroke="null" x="1" y="-1.125" id="svg_1" width="29.75" height="29.75" fill-rule="evenodd" fill="none" clip-rule="evenodd"/>
    <path stroke="null" id="LinkedIn_1_" fill-rule="evenodd" fill="#007EBB" d="m1.75049,8.90005l5.79846,0l0,18.37272l-5.79846,0l0,-18.37272zm2.75141,-2.29796l-0.04207,0c-2.099,0 -3.45983,-1.40453 -3.45983,-3.18488c0,-1.81498 1.40104,-3.18999 3.54211,-3.18999c2.13921,0 3.45472,1.37152 3.49655,3.18488c0,1.78012 -1.35734,3.18999 -3.53676,3.18999zm26.2481,20.67067l-6.57521,0l0,-9.50768c0,-2.48854 -1.02847,-4.18754 -3.29016,-4.18754c-1.72992,0 -2.69191,1.14654 -3.13979,2.25124c-0.16781,0.39651 -0.14178,0.94898 -0.14178,1.50145l0,9.94231l-6.51386,0c0,0 0.0839,-16.84175 0,-18.37272l6.51386,0l0,2.88343c0.38489,-1.26066 2.46623,-3.06007 5.788,-3.06007c4.12107,0 7.35871,2.64264 7.35871,8.33349l0,10.2161l0.00023,0z" clip-rule="evenodd"/>
   </g>
  </g>
 </g>
</svg>